<svg xmlns="http://www.w3.org/2000/svg" width="65" height="65" viewBox="0 0 65 65">
  <g id="noun_School_975011" transform="translate(0 0)">
    <g id="Group_53" data-name="Group 53" transform="translate(0 0)">
      <path id="Path_278" data-name="Path 278" d="M64.327,30.768,33.431,8.756c-.03-.021-.06-.04-.092-.059V5.961c2.648-1.444,5.295,1.732,7.943.094V.484c-2.647,1.638-5.295-1.538-7.943-.094V.3a.3.3,0,0,0-.3-.3H31.963a.3.3,0,0,0-.3.3V8.7c-.031.019-.061.038-.091.059L.674,30.768A1.6,1.6,0,0,0,1.6,33.677H4.638v26.31H4.459a1.326,1.326,0,0,0-1.326,1.327v1.68A1.326,1.326,0,0,0,4.459,64.32H18.3V62.75A1.556,1.556,0,0,1,19.857,61.2h.477V59.45A1.556,1.556,0,0,1,21.888,57.9h.872V56.332a1.45,1.45,0,0,1,1.448-1.449h1.319V40.795a1.336,1.336,0,0,1,1.336-1.336H38.137a1.337,1.337,0,0,1,1.337,1.336V54.883h1.319a1.449,1.449,0,0,1,1.448,1.449V57.9h.872a1.556,1.556,0,0,1,1.554,1.554V61.2h.477A1.556,1.556,0,0,1,46.7,62.75v1.57H60.542a1.326,1.326,0,0,0,1.326-1.326v-1.68a1.326,1.326,0,0,0-1.326-1.327h-.178V33.677H63.4a1.6,1.6,0,0,0,.929-2.909ZM14.314,51.332a.877.877,0,0,1-.877.877H10.5a.877.877,0,0,1-.877-.877V48.47a.877.877,0,0,1,.877-.877h2.941a.877.877,0,0,1,.877.877Zm0-7.559a.877.877,0,0,1-.877.877H10.5a.877.877,0,0,1-.877-.877V40.912a.877.877,0,0,1,.877-.877h2.941a.877.877,0,0,1,.877.877Zm7.957,7.559a.877.877,0,0,1-.877.877H18.454a.877.877,0,0,1-.877-.877V48.47a.877.877,0,0,1,.877-.877h2.941a.877.877,0,0,1,.877.877Zm0-7.559a.877.877,0,0,1-.877.877H18.454a.877.877,0,0,1-.877-.877V40.912a.877.877,0,0,1,.877-.877h2.941a.877.877,0,0,1,.877.877ZM32.5,33.4a7.507,7.507,0,1,1,7.507-7.508A7.507,7.507,0,0,1,32.5,33.4ZM47.423,51.332a.877.877,0,0,1-.877.877H43.6a.877.877,0,0,1-.876-.877V48.47a.877.877,0,0,1,.876-.877h2.941a.877.877,0,0,1,.877.877Zm0-7.559a.877.877,0,0,1-.877.877H43.6a.877.877,0,0,1-.876-.877V40.912a.877.877,0,0,1,.876-.877h2.941a.877.877,0,0,1,.877.877Zm7.957,7.559a.877.877,0,0,1-.877.877H51.562a.877.877,0,0,1-.877-.877V48.47a.877.877,0,0,1,.877-.877H54.5a.877.877,0,0,1,.877.877Zm0-7.559a.877.877,0,0,1-.877.877H51.562a.877.877,0,0,1-.877-.877V40.912a.877.877,0,0,1,.877-.877H54.5a.877.877,0,0,1,.877.877ZM37.451,25.384a.9.9,0,0,1,0,1.8H32.416a.868.868,0,0,1-.092-.005.9.9,0,0,1-.807-.894V21.248a.9.9,0,0,1,1.8,0v4.137h4.137ZM24.208,55.953H40.793a.379.379,0,0,1,.378.379V57.9H23.829V56.332A.379.379,0,0,1,24.208,55.953Zm-2.32,3.013H43.112a.485.485,0,0,1,.485.484V61.2H21.4V59.45A.485.485,0,0,1,21.888,58.965Zm23.74,3.784v1.766a.485.485,0,0,1-.485.485H19.857a.485.485,0,0,1-.485-.485V62.749a.485.485,0,0,1,.485-.485H45.143A.485.485,0,0,1,45.628,62.749Zm-15.2-13.221a1.093,1.093,0,1,1,1.093-1.093A1.093,1.093,0,0,1,30.428,49.528Zm4.139,0a1.093,1.093,0,1,1,1.093-1.093A1.093,1.093,0,0,1,34.567,49.528Z" transform="translate(0)" fill="#11476d"/>
    </g>
  </g>
</svg>
