<svg xmlns="http://www.w3.org/2000/svg" width="63.878" height="64.038" viewBox="0 0 63.878 64.038">
  <g id="Group_71" data-name="Group 71" transform="translate(0 0)">
    <path id="Path_301" data-name="Path 301" d="M30.535,959.595a.744.744,0,0,0-.675.744v6.608a.745.745,0,0,0,.745.745l13.053-.047a.745.745,0,0,0,.744-.744v-2l2.35,7.329a.74.74,0,0,0,1.07.558l12.192-3.909a.745.745,0,0,0,.558-.4c0-.008,0-.016,0-.023H60.6a.745.745,0,0,0-.023-.652l-2.42-7.608a.718.718,0,0,0-.954-.489l-12.4,3.979a.745.745,0,0,0-.4.279v-3.63a.745.745,0,0,0-.744-.745H30.6q-.035,0-.07,0Z" transform="translate(-12.919 -959.594)" fill="#11476d" fill-rule="evenodd"/>
    <path id="Path_302" data-name="Path 302" d="M67.229,974.887a.744.744,0,0,0-.32.081l-12.189,3.9a.745.745,0,0,0-.554.4l-.01.018,0,0a.745.745,0,0,0,0,.669l1.49,4.641a.745.745,0,0,0,.393.55l.021.011a.745.745,0,0,0,.672,0l12.183-3.9a.745.745,0,0,0,.553-.395l.01-.02a.745.745,0,0,0,0-.672L68,975.53a.744.744,0,0,0-.4-.555l-.015-.009-.007,0a.745.745,0,0,0-.348-.078Z" transform="translate(-19.105 -963.5)" fill="#11476d" fill-rule="evenodd"/>
    <path id="Path_303" data-name="Path 303" d="M70.841,986.187a.747.747,0,0,0-.32.082l-12.181,3.9a.758.758,0,0,0-.561,1.087l12.256,38.3a.745.745,0,0,0,.936.482l12.419-3.976a.745.745,0,0,0,.482-.936l-12.263-38.3a.745.745,0,0,0-.393-.552l-.022-.012a.744.744,0,0,0-.353-.079Z" transform="translate(-20.029 -966.387)" fill="#11476d" fill-rule="evenodd"/>
    <path id="Path_304" data-name="Path 304" d="M7.861,959.6a.745.745,0,0,0-.745.745v8.448a.744.744,0,0,0,.211.65l.011.012.006.006a.744.744,0,0,0,.636.2h12.8a.745.745,0,0,0,.647-.208l.016-.016h0a.744.744,0,0,0,.2-.642v-8.449a.745.745,0,0,0-.744-.745H7.86Z" transform="translate(-7.106 -959.595)" fill="#11476d" fill-rule="evenodd"/>
    <path id="Path_305" data-name="Path 305" d="M7.864,977.39a.745.745,0,1,0,0,1.489H20.9a.745.745,0,1,0,0-1.489Z" transform="translate(-7.11 -964.14)" fill="#11476d" fill-rule="evenodd"/>
    <path id="Path_306" data-name="Path 306" d="M7.864,983.55a.745.745,0,1,0,0,1.489H20.9a.745.745,0,0,0,0-1.489Z" transform="translate(-7.11 -965.713)" fill="#11476d" fill-rule="evenodd"/>
    <path id="Path_307" data-name="Path 307" d="M7.85,989.816a.744.744,0,0,0-.514.218l-.017.016h0a.744.744,0,0,0-.2.639v38.419a.745.745,0,0,0,.745.745H20.9a.745.745,0,0,0,.744-.745V990.692a.745.745,0,0,0-.207-.647l-.016-.017h0a.745.745,0,0,0-.64-.2H7.982a.737.737,0,0,0-.133-.011Z" transform="translate(-7.106 -965.815)" fill="#11476d" fill-rule="evenodd"/>
    <path id="Path_308" data-name="Path 308" d="M30.694,973.04a.745.745,0,1,0,0,1.489H43.538a.745.745,0,1,0,0-1.489Z" transform="translate(-12.941 -963.029)" fill="#11476d" fill-rule="evenodd"/>
    <path id="Path_309" data-name="Path 309" d="M30.614,994.3a.745.745,0,1,0,0,1.489H43.651a.745.745,0,0,0,0-1.489H30.614Z" transform="translate(-12.921 -968.459)" fill="#11476d" fill-rule="evenodd"/>
    <path id="Path_310" data-name="Path 310" d="M30.6,977.7a.745.745,0,0,0-.512.216l-.019.018a.744.744,0,0,0-.2.641v7.352a.744.744,0,0,0,.207.647l.016.017h0a.745.745,0,0,0,.64.2h12.8a.745.745,0,0,0,.647-.207l.016-.016h0a.745.745,0,0,0,.2-.639v-7.354a.745.745,0,0,0-.211-.65l-.011-.012h0l0,0a.744.744,0,0,0-.637-.2h-12.8a.731.731,0,0,0-.133-.01Z" transform="translate(-12.918 -964.218)" fill="#11476d" fill-rule="evenodd"/>
    <path id="Path_311" data-name="Path 311" d="M30.6,1000.59a.745.745,0,0,0-.512.215l-.019.019a.745.745,0,0,0-.2.641v30.4a.745.745,0,0,0,.744.744H43.648a.745.745,0,0,0,.745-.745v-30.4a.745.745,0,0,0-.211-.65l-.011-.012h-.006a.745.745,0,0,0-.637-.2h-12.8a.731.731,0,0,0-.133-.01Z" transform="translate(-12.918 -968.59)" fill="#11476d" fill-rule="evenodd"/>
  </g>
</svg>
