<svg xmlns="http://www.w3.org/2000/svg" width="66.784" height="63.997" viewBox="0 0 66.784 63.997">
  <g id="Group_61" data-name="Group 61" transform="translate(0 0)">
    <g id="Group_56" data-name="Group 56" transform="translate(0 0)">
      <path id="Path_282" data-name="Path 282" d="M34.569,30.808a13.721,13.721,0,0,1,4.764,7.458L59.828,17.771,49.512,7.455l-20.45,20.45A14.462,14.462,0,0,1,34.569,30.808ZM64.647,12.951A7.293,7.293,0,1,0,54.332,2.638L51.48,5.49,61.8,15.806ZM32.788,32.945a11.5,11.5,0,0,0-5.179-2.538l-2.527,10.1a1.39,1.39,0,0,0,1.686,1.686l10.11-2.527a1.352,1.352,0,0,1-.217-.573A10.574,10.574,0,0,0,32.788,32.945Zm27.491-11.69-3.431,3.431L50.834,58.768l-.484,2.741-23.984-4L15.2,55.652h0L3,53.618,10.869,9.052l28.378,4.731,6.3-6.3L27.423,8.991,9.967,6.08a1.379,1.379,0,0,0-1.6,1.13L.021,54.516A1.393,1.393,0,0,0,1.162,56.13l12.483,2.081.267,4.97A1.394,1.394,0,0,0,15.3,64.5a1.37,1.37,0,0,0,.153-.008L36.97,62.1l14.278,2.379a1.294,1.294,0,0,0,.231.019,1.394,1.394,0,0,0,1.369-1.149l.543-3.072,12.155-1.35a1.391,1.391,0,0,0,1.236-1.461L64.533,17Z" transform="translate(0 -0.501)" fill="#11476d"/>
    </g>
  </g>
</svg>
