<svg xmlns="http://www.w3.org/2000/svg" width="65" height="65" viewBox="0 0 65 65">
  <g id="Group_88" data-name="Group 88" transform="translate(-5 -5)">
    <path id="Path_313" data-name="Path 313" d="M66.389,9H61.574v1.2a3.611,3.611,0,1,1-7.222,0V9H51.944v1.2a3.611,3.611,0,1,1-7.222,0V9H30.278v1.2a3.611,3.611,0,0,1-7.222,0V9H20.648v1.2a3.611,3.611,0,0,1-7.222,0V9H8.611A3.611,3.611,0,0,0,5,12.611v3.611H70V12.611A3.611,3.611,0,0,0,66.389,9Z" transform="translate(0 0.815)" fill="#11476d"/>
    <rect id="Rectangle_1475" data-name="Rectangle 1475" width="14" height="12" transform="translate(5 34)" fill="#11476d"/>
    <path id="Path_314" data-name="Path 314" d="M19,41.037H33.444V29H19Zm2.756-6.873a1.2,1.2,0,0,1,1.709,0l1.553,1.565,3.96-3.972a1.209,1.209,0,1,1,1.709,1.709l-4.815,4.815a1.2,1.2,0,0,1-1.709,0l-2.407-2.407a1.2,1.2,0,0,1,0-1.709Z" transform="translate(2.852 4.889)" fill="#11476d"/>
    <rect id="Rectangle_1476" data-name="Rectangle 1476" width="14" height="12" transform="translate(39 34)" fill="#11476d"/>
    <rect id="Rectangle_1477" data-name="Rectangle 1477" width="14" height="12" transform="translate(56 34)" fill="#11476d"/>
    <rect id="Rectangle_1478" data-name="Rectangle 1478" width="14" height="12" transform="translate(5 19)" fill="#11476d"/>
    <rect id="Rectangle_1479" data-name="Rectangle 1479" width="14" height="12" transform="translate(22 19)" fill="#11476d"/>
    <path id="Path_315" data-name="Path 315" d="M47,29.037H61.444V17H47Zm2.756-6.873a1.2,1.2,0,0,1,1.709,0l1.553,1.565,3.96-3.972a1.209,1.209,0,0,1,1.709,1.709l-4.815,4.815a1.2,1.2,0,0,1-1.709,0l-2.407-2.407a1.2,1.2,0,0,1,0-1.709Z" transform="translate(8.556 2.444)" fill="#11476d"/>
    <rect id="Rectangle_1480" data-name="Rectangle 1480" width="14" height="12" transform="translate(39 19)" fill="#11476d"/>
    <path id="Path_316" data-name="Path 316" d="M33,53.037H47.444V41H33Zm2.756-6.873a1.2,1.2,0,0,1,1.709,0l1.553,1.565,3.96-3.972a1.209,1.209,0,0,1,1.709,1.709l-4.815,4.815a1.2,1.2,0,0,1-1.709,0l-2.407-2.407a1.2,1.2,0,0,1,0-1.709Z" transform="translate(5.704 7.333)" fill="#11476d"/>
    <rect id="Rectangle_1481" data-name="Rectangle 1481" width="14" height="12" transform="translate(56 48)" fill="#11476d"/>
    <path id="Path_317" data-name="Path 317" d="M5,56.611a3.611,3.611,0,0,0,3.611,3.611H66.389A3.611,3.611,0,0,0,70,56.611V53H5Z" transform="translate(0 9.778)" fill="#11476d"/>
    <rect id="Rectangle_1482" data-name="Rectangle 1482" width="14" height="12" transform="translate(22 48)" fill="#11476d"/>
    <rect id="Rectangle_1483" data-name="Rectangle 1483" width="14" height="12" transform="translate(5 48)" fill="#11476d"/>
    <path id="Path_318" data-name="Path 318" d="M49.2,12.222a1.119,1.119,0,0,0,.831-.349,1.2,1.2,0,0,0,.373-.855V6.2A1.2,1.2,0,1,0,48,6.2v4.815A1.2,1.2,0,0,0,49.2,12.222Z" transform="translate(8.759)" fill="#11476d"/>
    <path id="Path_319" data-name="Path 319" d="M41.2,12.222a1.119,1.119,0,0,0,.831-.349,1.2,1.2,0,0,0,.373-.855V6.2A1.2,1.2,0,1,0,40,6.2v4.815A1.2,1.2,0,0,0,41.2,12.222Z" transform="translate(7.13)" fill="#11476d"/>
    <path id="Path_320" data-name="Path 320" d="M23.2,12.222a1.119,1.119,0,0,0,.831-.349,1.2,1.2,0,0,0,.373-.855V6.2A1.2,1.2,0,0,0,22,6.2v4.815A1.2,1.2,0,0,0,23.2,12.222Z" transform="translate(3.463)" fill="#11476d"/>
    <path id="Path_321" data-name="Path 321" d="M15.2,12.222a1.119,1.119,0,0,0,.831-.349,1.2,1.2,0,0,0,.373-.855V6.2A1.2,1.2,0,1,0,14,6.2v4.815A1.2,1.2,0,0,0,15.2,12.222Z" transform="translate(1.833)" fill="#11476d"/>
  </g>
</svg>
